<svg width="304" height="430" viewBox="0 0 304 430" fill="none" xmlns="http://www.w3.org/2000/svg">
<path d="M301.785 166.804L300.052 165.991V168.661L298.656 170.234L296.145 173.965L294.748 174.902L290.841 179.622L289.268 182.133L287.393 186.341L285.36 186.677L283.486 185.58L282.372 180.577L282.673 174.813L283.946 169.456L287.04 164.453L293.316 155.065L297.064 147.427L297.524 142.07L296.923 140.373L295.827 141.469L293.953 146.136L291.106 150.857L286.898 154.305L282.054 158.972L274.841 167.423L273.444 167.299L272.984 165.85L272.807 162.402L273.267 155.984L275.477 148.806L279.384 140.832L284.565 134.415L290.982 128.934L291.584 127.661L290.823 127.06L287.553 128.757L284.883 130.49L280.339 134.397L274.699 139.4L270.668 144.881L266.743 152.059L264.586 157.876L263.95 163.657L263.649 171.472L265.523 179.622L267.397 186.677L271.004 197.762L273.338 211.057L274.735 221.206V226.686L274.133 232.45L273.196 237.171L271.446 242.475L264.869 250.749L258.151 256.866L249.541 261.711L241.266 262.17L240.17 258.139L237.2 252.322L233.133 246.718L230.464 243.412L226.892 238.567L219.202 231.23L211.387 224.812L207.957 222.143L197.172 214.841L181.685 201.846L173.234 191.362L163.987 176.21L161.476 167.123L162.113 161.483L163.386 160.386L166.657 162.596L171.837 165.107L176.045 164.93L180.871 167.14L186.052 170.287L188.721 172.444L192.169 174.831L195.74 175.291L196.554 173.717L195.617 173.54L194.52 174L192.788 172.904L191.25 170.57L189.04 166.963L184.796 163.056L180.589 161.483L178.255 161.023L178.732 159.785H182.003L185.786 161.023L191.267 164.63L193.778 165.726L194.715 164.453L193.141 162.296L188.898 158.512L182.321 155.082L174.383 151.988L172.809 150.715L174.383 149.619L177.954 151.352L184.531 152.448L191.568 155.259L195.298 157.133L201.875 158.07L206.596 157.434L209.23 156.196L212.837 153.986L214.41 152.466L214.587 151.37L213.12 151.493L211.723 152.943L207.055 154.481L202.989 155.118L199.541 154.658L196.235 152.024L193.265 148.541L189.694 145.907L184.354 144.81L179.209 143.078L176.999 141.681L177.176 140.443L179.209 140.744H183.753L188.297 140.443H192.965L195.475 139.984L197.508 141.681L200.779 142.494H203.449L204.686 141.557L202.529 140.921L199.86 139.188L197.049 136.554L192.505 134.167L188.774 133.707L185.344 133.248L184.071 132.487L186.582 131.091H190.648L193.795 132.028L196.889 133.601L201.893 135.758L206.896 135.935L209.566 134.662L210.326 132.965L208.293 132.028L204.085 131.851L200.479 130.613L197.349 127.944L193.902 126.211L189.358 125.451L185.451 124.054L183.753 121.844L184.054 120.748L186.564 121.261L189.711 122.198L191.585 123.594L194.255 123.895L194.556 122.498L191.762 120.288L190.949 118.29L194.715 118.891L198.286 120.766L202.83 121.278L204.58 124.549L209.248 127.36L209.495 127.325L210.521 126.901L211.758 126.14L211.157 125.203L209.407 125.327L207.833 123.17L204.686 118.326L199.206 113.446L193.601 110.935L192.027 109.061L188.58 104.995L185.433 103.298L184.973 101.724L186.37 100.787L189.676 101.547L196.218 103.421L199.365 104.518L201.398 107.364L204.669 109.061H207.179L210.485 109.998L214.092 109.362L215.489 108.124L213.456 106.392L210.485 105.631L207.038 105.172L205.005 103.439L202.335 99.5319L201.698 97.0213L198.251 93.9273L194.52 91.5405L190.277 88.9062L185.61 84.5392L185.309 83.2663H186.37L192.487 88.1106L198.728 91.7173L202.034 94.2279L206.242 98.1352L210.008 100.168L212.183 100.805L213.279 99.0722L211.705 98.4711L208.435 95.5008L207.497 92.1947L204.068 88.4642L201.221 86.0774L199.824 82.506L194.98 75.2926L188.403 69.5112L188.103 67.6372L190.436 67.9377L193.742 69.635L199.046 71.845L204.527 72.1456L208.594 74.055L212.961 74.8152L216.691 73.7191L216.391 72.1456L212.147 71.2085L208.417 69.5112L200.903 65.9045L196.836 63.6945L194.662 61.0602L195.422 60.1232L196.518 60.8834L198.215 61.5199L200.425 61.6967H204.032L207.126 61.3608L211.847 61.0602L215.453 62.4569L219.184 65.1266L220.757 65.5863L220.934 64.1896L219.661 62.9166L215.931 59.469L210.114 56.4988L205.906 56.0391L197.933 55.5794L196.076 53.3694L192.01 49.303L187.466 46.209L185.769 44.6355L187.165 43.5393L189.322 44.4764L193.23 46.5096L197.65 48.0831L203.59 49.4798H208.735L212.978 54.2004L216.426 56.2336L217.663 54.9606L212.996 48.0831L205.659 42.7791L199.541 41.3293L194.361 35.9016L189.817 33.2319L183.576 31.6584L187.024 28.6881L193.141 26.6549L197.685 25.2582L198.746 23.8615L198.145 22.7653L195.634 22.1288L193.265 21.6692L175.603 22.0051L172.456 18.5221L168.884 16.1884L164.341 14.1552L158.4 13.2181H153.255L151.859 11.344L147.014 6.1638L141.197 0.859802L137.626 6.80028L137.449 8.67436L139.147 10.8844L139.323 12.7584L138.086 13.8546L134.143 14.1552L126.965 12.122L119.911 10.6015L116.64 10.7252L111.301 11.8214L111.937 13.6955L114.907 13.5717L116.145 13.7839L116.11 15.4458L114.377 15.8348L112.132 15.5342L108.737 16.2591L106.191 17.0724L104.158 17.1961L103.521 18.0801L104.246 19.3177L105.784 19.6536L107.234 19.2293L108.896 18.5044L110.593 18.416L114.2 18.5928L116.958 19.4415L120.229 20.2548L125.02 22.4117L125.445 23.4372L124.932 24.2504L122.687 25.0637L121.325 25.7002L118.903 27.3091L115.208 29.2716L110.717 32.454L105.502 34.5402L101.435 37.2099L97.74 38.8188L94.2571 39.6674L91.1984 39.7558L86.9906 39.8442L85.3817 40.2685L84.4447 42.231L83.7198 44.3526L82.9065 45.8024L80.8733 48.861L78.9108 52.2556L77.6025 53.9175L77.4788 55.8269L77.6025 58.4966V61.3431L79.3352 62.9166L80.8733 63.7299L82.6944 63.6061L85.6646 62.7928L89.0238 61.7674L93.5676 59.9464L95.3886 60.0348L95.8129 61.184L95.3886 62.2801L93.8504 63.0934L89.2183 64.826L85.7353 65.8515L85.0635 67.0007L84.9397 68.2383L86.0889 69.2637L88.5111 69.5643H90.4735L92.9311 69.4759L95.6008 68.8394L99.4727 66.8062L102.019 66.2935L104.176 65.8692L105.837 66.4172L108.26 66.2935L110.646 66.594L112.609 67.7432L115.668 68.0438L119.663 69.2814L121.82 69.582L125.179 68.9808L129.476 69.2814L131.35 70.0063L132.375 71.7389L132.163 73.9843L131.65 76.7424L130.625 79.9248L129.175 83.9204L127.725 88.2874L126.187 92.2831L125.162 95.0412L121.679 100.469L117.471 105.773L113.687 110.989L108.896 115.78L104.476 119.51L101.665 122.481L100.18 127.36L98.129 129.782L95.4947 131.656L92.3123 134.291L87.4326 137.261L83.3131 139.33L80.6788 142.335L78.8047 144.775L76.9307 145.924L74.2963 147.233L72.5991 146.844L69.2399 145.305L65.5094 142.883L60.0286 140.461L53.8759 137.243L50.6935 134.821L46.7509 131.639L42.4193 128.067L37.7518 126.37L33.6323 125.645L28.3637 126.741L24.6332 128.828L21.4155 131.073L19.7535 135.192L18.6043 138.375L17.296 143.255L15.8109 146.225L14.3258 150.769L14.1136 156.196L12.8053 159.379L11.3202 164.435L10.0119 169.492L7.5897 174.212L6.28138 178.88L5.52114 184.696L3.4349 189.576L2.12658 192.37L1.94978 195.181L1.77298 199.901V208.14L0.835938 211.535L1.38402 214.505L1.17186 219.385L2.86914 223.292L4.17746 224.229L6.59962 223.469L8.84498 221.435L12.0627 217.528L14.8739 213.037L15.97 209.307L15.2451 206.301L14.3081 202.571L13.1589 198.08L12.0627 193.377L11.4616 189.806V186.447L12.2219 182.663L14.0959 176.882L15.97 173.876L17.6673 172.356L18.9756 170.323L21.3978 170.11L22.547 169.386L24.2443 167.847L26.1183 166.185L27.8156 163.94L28.5405 161.306L29.1416 159.06L29.3184 156.055L29.8665 153.421L31.1748 151.759L32.4831 151.37L34.1804 151.918L36.6026 153.226L39.2369 156.232L42.048 160.351L45.2304 164.082L48.625 167.087L51.6306 169.509L54.6008 170.818L55.5379 172.692L54.6008 173.629L51.4184 172.904L46.9277 172.515L41.111 171.366L35.5064 170.27L28.7527 170.057L24.81 170.27L21.8044 172.144L18.622 174.937L15.9877 179.428L13.9545 184.52L13.7423 188.25L14.8915 195.004L17.5259 203.614L18.8342 210.368L20.4961 216.945L21.6453 221.577L22.1934 225.909L23.6785 230.788L24.8277 238.267L25.9239 240.901L28.7703 243.146L31.4047 245.781L34.3749 250.289L36.4611 255.558L39.6435 260.225L44.3111 264.716L47.6879 266.802L49.9333 266.979L51.8074 266.431L52.9566 263.797L54.2295 261.551L54.9898 258.369V251.067L54.0527 248.981C53.8759 248.981 53.8759 247.673 53.8759 247.496L53.487 246.187L51.9488 243.942L49.1377 241.131L43.9221 238.886L42.0127 238.285L41.6767 235.102L41.8535 233.069L38.2822 228.949L36.0368 223.681L34.1627 216.202L32.6423 209.289L30.061 203.862L29.1239 197.285L30.6091 193.342L33.2434 191.857H35.2766L38.2822 194.491L42.6138 197.125L47.1045 198.787L57.9777 204.056L63.2463 207.062V209.855L68.0907 212.648L74.2963 214.735H87.2381L86.3011 217.157L85.753 218.465L87.4149 221.612L90.5973 226.333L95.6892 231.389L101.842 238.143L107.11 242.811L116.958 250.36L124.932 254.639L130.925 257.821L138.616 263.036L145.706 268.093L151.823 273.273L158.188 281.883L158.489 285.49L159.938 289.221L163.846 292.032L167.417 293.428L169.627 293.128L171.377 291.431L173.888 288.761L174.489 285.154L177.459 280.009L178.096 276.067L178.573 271.7L178.874 268.252L179.846 266.095L181.844 265.123H183.753L183.877 266.573L182.48 268.093L181.243 271.399L180.306 273.432V275.943L179.97 281.247L179.209 283.917L176.876 287.948L173.729 293.128L170.599 298.768L168.743 306.105L167.806 313.796L168.743 322.371L169.981 327.374L172.951 333.951L176.734 341.766L179.705 347.883L183.771 354.301L188.615 360.241L189.552 362.274V363.671L188.916 365.404L187.219 368.215L184.549 371.945L179.068 379L173.587 384.94L168.584 390.421L166.427 391.694L162.007 393.391L159.373 395.902L157.976 398.748L154.829 402.655L151.275 406.563L146.908 411.107L144.238 415.774L142.665 420.495L141.728 424.402L141.905 427.549L143.779 429.547H150.656L153.627 429.246L156.738 427.39L160.805 425.516L161.441 423.942H162.838L164.995 423.005L167.028 421.096L168.142 413.617L167.505 412.044L167.205 410.47L168.319 410.771L169.539 411.107L170.811 410.169L172.845 408.897L175.002 406.085L177.671 402.302L179.068 398.872L179.369 396.061L181.119 394.788L183.629 393.391L185.663 392.154L187.36 388.724L190.967 384.958L197.703 378.717L202.83 375.287L208.01 372.44L209.23 371.203L209.707 369.93L210.804 368.533L210.043 366.677L209.884 363.229L209.195 360.011L208.382 358.137L206.596 355.079L203.749 351.507L202.353 348.838L202.052 346.026V342.261L202.689 340.104L204.386 334.287L206.118 331.476L207.993 330.38L211.422 328.223L215.489 324.74L220.97 320.072L224.7 316.165L228.466 311.798L232.373 307.378L235.184 302.41L237.518 298.167L239.728 293.322L241.302 287.965L241.779 282.997L242.08 279.214L243.353 277.976L244.749 277.64L245.987 278.453L247.083 281.088L247.384 284.694L247.896 288.124L247.56 290.458L247.26 294.065V301.756L248.197 307.82L249.293 309.393L250.23 309.27L250.69 308.174L250.053 305.663V301.42L251.326 297.848L251.927 292.668L252.564 289.061L253.377 287.364H254.314L255.074 288.124L255.835 291.095L256.471 293.941L256.171 298.432L255.234 304.549L252.387 310.49L249.753 316.13L248.179 320.974L247.879 323.944L248.179 327.374L249.275 330.68H251.309L252.369 329.23L251.768 327.657L251.309 324.846L253.165 322.335L255.34 319.365L256.789 316.572L260.219 311.091L263.03 306.087L264.268 300.607L265.364 293.393V286.25L263.967 281.247L261.156 277.34L260.82 275.483L262.093 274.847L263.667 275.607L265.7 278.118L268.211 282.661L269.271 287.965L269.908 295.02L271.481 299.899L271.658 300.023L273.815 304.867L275.212 305.38L275.848 304.107L275.689 303.347L274.628 299.74L274.469 296.133L274.628 290.829L275.565 284.889V281.919L275.23 279.408L272.719 274.387L270.562 270.78L271.322 269.384L274.293 268.747L278.359 266.891L282.726 264.557L286.633 261.127L291.637 254.373L294.483 248.769L296.817 243.429L297.577 234.855L297.754 227.164L296.516 217.652L295.067 210.774L293.829 203.72L293.069 196.383L293.67 191.715L294.943 185.899L297.577 180.117L301.343 174.177L302.74 170.393L303.04 168.519L301.785 166.804ZM89.0768 53.5816L87.8392 54.8192L86.1066 55.7916L83.7728 56.3043L82.9595 55.7916L82.659 54.1296L83.3485 51.7959L85.0104 49.4975L86.3718 48.8256L87.6094 48.9494L89.0945 50.187L89.7663 51.2832L89.0768 53.5816ZM95.1764 52.0611L94.7521 52.2732L93.9035 52.3086L93.2316 51.9727L92.6835 51.3362L92.7719 50.576L93.4084 49.5505L93.9212 49.2146H94.593L95.1941 49.3384L95.4063 49.9748L95.4947 51.0887L95.1764 52.0611ZM102.743 59.027L102.107 59.3276H101.294L100.834 59.08L100.587 58.3905L100.675 57.5419L101.135 57.0292L101.736 56.9938L102.372 57.1706L102.673 57.6303L102.885 58.3905L102.743 59.027ZM117.206 37.1215L116.233 37.3867L115.049 37.6872L113.74 38.7834L110.806 40.5691L106.775 41.6652L104.264 42.3017L101.842 42.4785L100.604 42.3548L102.567 40.6928L106.173 38.9602L109.78 37.3513L113.21 35.7424L114.784 34.9822L115.968 34.8054L116.941 35.0176L117.701 36.2552L117.206 37.1215ZM7.90794 213.073L6.63498 212.772L5.9985 211.535L7.27146 210.898L8.3853 211.022L8.68586 212.118L7.90794 213.073ZM24.3327 147.445L23.4487 150.751L22.2995 154.481L20.2663 157.628L19.1701 157.929L18.7811 157.08V155.418L18.9933 153.173L19.8066 148.93L21.5923 145.836L22.5293 144.74L23.8907 144.351L24.4034 145.111L24.3327 147.445ZM33.3848 134.998L31.3516 135.758L29.4068 135.97L28.2223 135.511L27.9217 134.662L28.2576 133.513L29.2831 132.788L31.4047 132.54L32.5008 132.452L33.2611 132.664L33.9329 133.301L33.9683 134.026L33.3848 134.998ZM49.9687 157.381L49.5443 157.416L48.5189 156.78L47.0868 155.966L45.8492 154.941L44.7 153.792L44.1873 153.155L44.0635 152.218L44.3111 151.759L44.7354 151.794L45.4603 151.918L46.2735 152.643L47.2106 153.491L48.6957 154.375L49.5797 155.436L50.1278 156.249L50.1631 156.974L49.9687 157.381ZM22.0873 179.658L21.3271 180.718L20.5668 181.019L20.0541 180.595L20.0895 179.074L21.3624 176.864L21.7514 176.228L22.3879 175.927L22.989 176.316V177.589L22.6 178.473L22.0873 179.658ZM27.3913 219.102L27.1438 219.491H26.8432L26.2951 219.031L25.8708 218.218L25.199 216.733L24.2266 214.788L23.2542 211.729L22.7415 208.847L22.6531 205.488L23.1127 202.182L23.3603 201.793H23.8199L24.2796 202.217L24.7393 204.215L24.7747 206.248L25.5879 208.83L26.5603 211.588L26.9847 214.01L27.5858 217.952L27.3913 219.102ZM46.3266 255.222L46.8393 255.098L48.0769 255.363L48.625 255.965L48.7487 256.689L48.625 257.538L47.9001 258.086L47.0161 257.927L46.3796 257.326L46.1144 256.018L46.3266 255.222ZM58.5965 198.045L57.3235 198.133L55.6616 197.886L54.5124 197.373L51.8427 195.711L49.2084 193.749L46.2382 191.963L45.2127 191.203L46.5741 191.167L48.0592 191.715L50.6051 192.352L52.9389 193.501L55.6616 194.686L57.6064 195.57L58.6319 196.507L58.8087 197.355L58.5965 198.045ZM72.7228 161.447L70.9371 166.451L69.3636 171.242L66.6055 174.672L65.2088 175.733L63.7237 176.281L62.8751 175.68L62.7867 174.583L63.9712 173.311L65.2088 171.277L66.7823 167.847L67.7194 164.577L68.568 161.359L70.2299 158.265L71.3438 156.691L72.2808 156.426L73.1295 156.762L73.3947 157.787L72.7228 161.447ZM140.809 62.1564L142.205 60.3707L143.814 58.8502L145.264 57.8778L146.325 57.7894L147.05 58.2491V59.5574L146.661 61.0072L145.052 62.5453L143.142 63.7299L141.197 64.2426L140.26 63.942L140.137 63.1818L140.809 62.1564ZM135.133 29.2185L136.495 28.7588L137.432 28.3345L138.616 28.7588L139.005 29.6075L138.121 30.6329L136.884 31.0926L135.398 31.181L134.85 30.1556L135.133 29.2185ZM123.323 40.2155L122.775 38.7304L123.588 37.0684L125.374 35.5833L128.22 35.4596L130.307 35.8485L131.915 36.9624L132.729 38.8718L133.401 40.905L133.277 42.6907L131.491 43.3625H129.582L127.283 42.4255L125.25 41.3293L123.323 40.2155ZM130.289 61.9972L127.867 62.5453H125.692L125.303 61.8204L125.851 61.0602L126.488 60.6712L130.731 57.6656L133.312 56.0568L134.886 55.0844H135.434L135.522 56.2336L134.461 57.0822L133.949 58.8325L132.64 60.8657L130.289 61.9972ZM102.019 139.595L101.718 139.135L101.806 137.986L102.567 137.137L105.236 136.041L110.806 134.308L116.375 133.619H119.769L122.563 134.22L125.197 135.528L127.283 137.562L127.407 138.711L127.16 139.524L126.276 139.701L124.914 139.524L122.828 138.923L120.865 138.339L118.443 138.074H115.438L112.892 138.039L110.646 138.251L108.136 138.675L106.138 139.223L104.193 139.648L102.92 139.736L102.019 139.595ZM137.255 254.798L134.408 253.012L129.617 249.83L122.191 244.826L119.186 242.793L116.003 240.3L112.521 237.118L109.975 235.12L106.916 232.15L104.918 230.063L103.681 228.154L103.221 225.855L103.309 223.734L104.123 222.921L105.519 223.009L107.729 224.335L110.098 226.633L111.849 228.755L113.723 230.629L115.544 232.874L117.842 235.385L120.017 237.807L127.142 243.995L131.085 247.513L134.603 250.696L137.449 253.366L137.997 254.25L138.386 254.886L137.255 254.798ZM139.164 157.752L138.28 158.265L136.123 158.3L134.674 157.964L133.86 156.903L133.188 156.055V154.693L134.249 153.332L135.858 152.059L137.379 151.847L138.775 152.236L139.2 152.996L139.376 154.693L139.589 156.479L139.164 157.752ZM143.443 87.7924L142.559 91.0632L140.561 96.2788L137.891 100.699L134.921 106.215L130.165 112.88L126.558 116.664L124.048 117.636L123.235 117.601L123.111 116.964L123.871 115.179L126.93 110.458L129.44 105.278L131.686 100.823L135.681 93.0964L139.465 87.0675L141.41 85.1934L142.895 84.9459L143.531 85.9713L143.443 87.7924ZM152.159 65.1266L151.699 66.2758L150.037 68.2206L147.739 69.3168L145.441 70.2538L143.054 70.2892H141.569L141.056 69.5996L141.604 68.6272L142.912 68.0261L145.211 66.9123L147.845 65.3034L149.083 64.4194L150.957 63.5177L152.141 63.8183V65.1266H152.159ZM164.588 136.748L163.739 136.996L162.643 136.907L161.918 136.183L162.095 135.546L162.82 135.033L163.916 134.945L164.853 135.705L164.889 136.342L164.588 136.748ZM165.861 132.593H164.588L163.899 132.205V131.267L164.199 130.631L164.871 130.419H165.773L166.621 130.967L166.71 131.639L165.861 132.593ZM168.195 126.176L167.329 126.6L166.445 126.724L165.507 126.512L165.207 125.875V125.115L165.967 124.567L166.904 124.39H167.806L168.354 124.85L168.478 125.575L168.195 126.176ZM169.379 120.783L168.23 121.119L166.957 121.084L166.285 120.624L166.25 120.111L166.462 119.351L167.47 118.891L168.584 118.732L169.521 119.192L169.857 120.076L169.379 120.783ZM172.137 113.234L171.501 114.083L170.9 114.843L169.715 115.09H168.531L167.505 114.578L167.417 113.764L168.142 113.004L168.69 112.368L169.503 112.067L170.811 111.678H171.837L172.297 112.226L172.137 113.234ZM173.835 106.904L173.287 107.788L172.314 107.965L171.289 108.23L170.016 108.195L169.468 107.559L169.556 106.622L169.981 105.985L170.829 105.384L172.137 105.207L173.322 105.455L173.835 106.18V106.904ZM175.62 102.237L174.312 102.785L173.287 103.121H172.014L171.501 103.033L170.865 102.82L170.529 102.184L170.688 101.371L171.536 100.61L172.261 100.221L173.075 99.8855L174.224 99.8501L175.338 100.239L175.797 101.123L175.62 102.237ZM175.797 94.9704L175.338 95.7307L174.524 96.4025L173.34 96.8268L171.943 96.9506L170.794 96.7915L170.493 96.102L170.67 95.5539L171.13 95.218L173.163 94.1572L174.135 93.945L175.338 94.0688L175.797 94.4931V94.9704ZM171.837 77.7855H172.562L172.951 77.538L173.11 76.7777L173.269 76.1943L173.623 75.77L174.259 75.7346L175.019 75.9468L175.709 76.3357L175.797 77.149L175.709 78.4573L174.701 79.3413L173.375 79.9778L172.827 79.8894L172.279 79.6772L171.731 78.9877L171.642 78.2275L171.837 77.7855ZM171.837 72.3577V71.7212L172.403 71.1732L173.287 70.8372L174.347 70.8019L174.984 71.014L175.161 71.5621L174.807 72.1102L174.259 72.7113L173.357 72.9235H172.42L171.837 72.3577ZM171.89 89.5427L172.65 89.083L173.552 88.8708L174.436 88.7824L175.072 88.8178L175.32 89.2068V89.8432L175.019 90.5151L174.418 91.1869L172.933 91.8234L172.208 91.735L171.536 91.5228L171.36 90.798L171.501 89.9847L171.89 89.5427ZM175.709 84.3271L175.497 84.8752L174.56 85.5116L173.287 85.9713L172.579 85.7945L171.89 85.4056L171.766 84.716L171.855 83.8674L172.367 83.3547L173.092 82.842L174.153 82.6298L175.055 82.5944L175.656 82.7712L175.868 83.3724L175.709 84.3271ZM176.045 66.3642L175.921 67.0891L175.461 67.7256L174.701 68.0261L173.976 68.2029L173.34 68.2913L172.491 68.2029L172.279 67.6902L172.491 67.0184L173.004 66.5587L173.57 66.2581L174.507 65.6216L175.479 65.657L176.045 66.3642ZM174.736 60.1232L175.249 60.4237L175.338 61.1486L175.285 61.8381L174.489 62.563L173.729 62.8636L173.216 62.7752L172.827 62.563V61.8735L172.862 61.1486L173.41 60.5652L173.923 60.2646L174.736 60.1232ZM173.746 56.6048L173.534 57.3651L172.968 57.7894L172.456 58.09L171.766 58.1784L171.218 57.8424L171.094 57.2413L171.342 56.7286L171.855 56.0391L172.367 55.7916L173.039 55.7562L173.605 56.0921L173.746 56.6048ZM166.798 42.8852L168.036 42.7968L169.768 42.1249L171.342 41.789L172.65 41.7006L173.322 42.3371L172.385 43.7338L171.448 43.9813L169.892 44.5294L167.859 45.6786L165.914 46.704L163.669 47.6411L162.909 47.7295L162.272 47.5173L162.36 46.5803L162.025 45.6963V44.0874L162.749 42.2664L163.757 41.1702L164.411 40.3216L165.083 39.4729H166.109L166.816 40.1978L166.657 41.9835L166.798 42.8852ZM166.073 26.0008L166.533 26.3013L166.374 26.761L165.684 27.5743L164.747 27.6627L163.633 27.5036L162.997 27.203L162.537 26.6549L163.085 26.1952L163.881 25.8593L165.119 25.824L166.073 26.0008ZM160.221 19.4238L162.343 19.2116L163.492 19.6006L164.394 20.0603L164.429 20.8205L163.669 21.1564L162.484 21.2448L161.335 21.1564L160.433 20.9796L159.673 20.4316L160.221 19.4238ZM176.646 239.858L175.62 240.795L174.683 241.856L173.746 243.818L173.446 245.18L172.809 245.692L171.572 245.533L170.971 244.808L171.183 242.227L171.855 238.992L172.191 237.206L173.004 234.961L173.605 234.289L174.489 234.112H175.673L176.186 234.589L177.07 235.898L177.247 238.408L176.646 239.858ZM178.679 209.166L173.322 206.354L170.529 203.685L165.861 199.017L161.618 193.66L157.887 187.596L154.917 180.082L153.68 174.902L154.263 171.931L155.96 171.472L157.693 172.285L158.807 175.379L159.744 179.923L161.441 184.643L165.861 191.521L171.802 200.273L178.679 209.166ZM179.068 300.465L177.866 303.771L177.282 305.38L176.169 307.891L175.32 310.826L175.072 311.674L174.772 312.222H173.959L173.322 310.313L173.287 308.138L173.746 305.168L174.807 301.102L176.557 298.591L178.131 296.646L179.528 296.469L179.917 297.742L179.068 300.465ZM185.256 344.877L184.955 344.913L184.407 344.665L183.382 343.18L181.861 340.669L181.137 339.007L180.712 336.709V334.587L180.801 333.315L181.101 332.926H181.773L182.498 333.226L183.435 334.322L184.125 336.232L184.584 338.778L184.62 340.811L184.655 341.536L185.044 342.508L185.433 344.471L185.256 344.877ZM153.892 418.267L153.255 419.504L152.495 420.654L151.257 421.467L150.073 421.715H149.56L149.012 421.29L148.835 420.406L149.047 419.292L149.684 418.019L151.417 416.287L152.725 415.473L153.662 415.438L154.139 415.827L154.263 416.711L153.892 418.267ZM165.525 399.508L164.871 400.392L164.075 400.852L163.103 401.188L162.378 400.976L161.954 400.216L162.042 399.455L162.767 398.554L164.217 397.67L165.278 397.493L165.79 397.793L165.932 398.554L165.525 399.508ZM191.497 373.607L189.623 376.365L187.112 379.3L184.266 382.058L181.26 385.205L178.449 387.751L176.239 389.749L175.002 390.562L174.188 390.527L173.799 389.891L173.976 388.83L177.424 385.011L182.25 379.795L188.12 373.89L189.216 372.706L190.878 371.645L191.479 371.768L191.974 372.405L191.497 373.607ZM202.317 365.245L203.042 364.979L203.979 365.015L204.403 365.227L204.439 365.687L204.068 366.288L203.219 367.048L202.459 367.897H201.946L201.363 367.561L201.221 366.836L201.469 366.111L202.317 365.245ZM233.646 279.797L233.469 281.194L233.045 282.502L232.78 283.687L231.896 284.199L231.083 283.987L230.676 283.227L230.411 280.557L228.625 278.1L228.466 276.067L229.474 274.794L230.535 274.458L231.56 274.546L232.409 275.306L233.381 276.544L233.646 277.941V279.797ZM286.509 231.283L286.421 233.281L285.625 237.648L284.512 241.378L283.239 244.649L281.329 248.203L279.155 251.262L275.884 255.081L272.153 258.652L270.244 259.112L269.218 258.652L269.059 257.29L269.873 255.469L270.969 253.472L272.967 250.837L275.124 247.902L277.157 244.72L279.155 241.449L280.675 238.267L281.577 234.996L282.337 231.266L282.514 227.111L282.673 223.38L282.425 220.109L282.036 216.326L281.7 212.755L281.488 210.757L282.584 209.661L283.309 210.05L283.857 211.782L284.954 215.212L285.855 219.332L286.492 223.274V231.283H286.509Z" fill="white"/>
</svg>
